<svg xmlns="http://www.w3.org/2000/svg" viewBox="0 0 38.47 29.14"><defs><style>.cls-1{fill:#9d62a5;}.cls-2{fill:#8c4795;}.cls-3{fill:#eadfeb;}.cls-4{fill:#b983b8;}</style></defs><g id="Calque_2" data-name="Calque 2"><g id="Calque_1-2" data-name="Calque 1"><path class="cls-1" d="M38.17,2.5,17.07,0a1.25,1.25,0,0,0-.49,0,1.06,1.06,0,0,0-.42.22L.2,11.31a.34.34,0,0,0-.19.4.34.34,0,0,0,.3.22l4.91.58c.81,1.27.56,2.81.29,4.41a12.46,12.46,0,0,0-.25,2.9,2.09,2.09,0,1,0,1-.1,11.36,11.36,0,0,1,.24-2.59,8.52,8.52,0,0,0-.06-4.48l15.52,1.83L38.25,3.17a.36.36,0,0,0,.21-.41A.35.35,0,0,0,38.17,2.5Z"/><path id="Tracé_3" data-name="Tracé 3" class="cls-2" d="M19.72,11.87c5.83-1.35,10.45-.58,11.67,2.41.11.68-2,3.79-9.33,5.68s-11.66-.27-11.77-.74C9.66,16.51,13.89,13.22,19.72,11.87Z"/><path class="cls-3" d="M25.22,22.16l4.64,3.05a9.54,9.54,0,0,1-7.92,3.93,9.45,9.45,0,0,1-9.7-9.78,9.45,9.45,0,0,1,9.7-9.76,9.45,9.45,0,0,1,7.92,3.94l-4.64,3A3.91,3.91,0,0,0,21.94,15a4,4,0,0,0-4.13,4.37,4,4,0,0,0,4.13,4.36A3.89,3.89,0,0,0,25.22,22.16Z"/><path id="Tracé_1" data-name="Tracé 1" class="cls-4" d="M9.4,10.87s.94-3.64,8.51-5.47,10.33.69,10.33.69l3.15,8.19s-1.78-4.69-11.84-1.89c-10.34,2.89-9.36,6.68-9.36,6.68Z"/></g></g></svg>