<svg xmlns="http://www.w3.org/2000/svg" viewBox="0 0 86.88 39.1"><defs><style>.cls-1{isolation:isolate;}.cls-2{fill:#eadfeb;}.cls-3{fill:#9d62a5;}.cls-4{fill:#8c4795;}.cls-5{fill:#b983b8;}</style></defs><g id="Calque_2" data-name="Calque 2"><g id="Calque_1-2" data-name="Calque 1"><g id="THE_RIGHT" data-name="THE RIGHT" class="cls-1"><g class="cls-1"><path class="cls-2" d="M21,2.81H18.65V10H15.74V2.81H13.43V.17H21Z"/><path class="cls-2" d="M31,.17V10H28.06V6.36H25V10H22.08V.17H25V3.76h3.06V.17Z"/><path class="cls-2" d="M39.22,7.63V10h-6.7V.17h6.56V2.58H35.44V3.91h3.19V6.19H35.44V7.63Z"/><path class="cls-2" d="M48.41,6.85H47.34V10H44.43V.17h4c2.71,0,4,1.36,4,3.53a2.76,2.76,0,0,1-1.4,2.61L53.19,10H50ZM47.34,4.57h1.13c.66,0,1.09-.22,1.09-.87s-.33-.89-1.09-.89H47.34Z"/><path class="cls-2" d="M57,.17V10H54V.17Z"/><path class="cls-2" d="M67.93,4.32V10H66.65l-.33-1.21a3.8,3.8,0,0,1-3.11,1.39,4.94,4.94,0,0,1-5.07-5.11,5.11,5.11,0,0,1,9.21-3l-2.42,1.6a2.05,2.05,0,0,0-1.72-.84A2.12,2.12,0,0,0,61,5.09,2.22,2.22,0,0,0,63.21,7.5a1.89,1.89,0,0,0,1.94-1.14H63v-2Z"/><path class="cls-2" d="M78.23.17V10H75.31V6.36H72.24V10H69.33V.17h2.91V3.76h3.07V.17Z"/><path class="cls-2" d="M86.88,2.81H84.57V10H81.66V2.81H79.35V.17h7.53Z"/></g></g><path class="cls-2" d="M47.67,35.26H41.39l-.91,3.29H33.9L40.77,18h7.52l6.87,20.56H48.58Zm-1.2-4.34-1.94-7-1.94,7Z"/><path class="cls-2" d="M70.67,33v5.52H56.92V18H63V33Z"/><path class="cls-2" d="M86.76,33v5.52H73V18h6.08V33Z"/><path class="cls-3" d="M42.65,9.33,19.07,6.55a1.15,1.15,0,0,0-.54,0,1.32,1.32,0,0,0-.48.24L.23,19.17a.37.37,0,0,0-.21.45.35.35,0,0,0,.33.24l5.48.65c.91,1.43.63,3.14.33,4.94a14.21,14.21,0,0,0-.29,3.24A2.32,2.32,0,0,0,4.4,31.52,2.29,2.29,0,0,0,6,33.12,2.33,2.33,0,1,0,7,28.57a13.11,13.11,0,0,1,.27-2.9,9.43,9.43,0,0,0-.07-5l17.35,2L42.74,10.08A.42.42,0,0,0,43,9.62.4.4,0,0,0,42.65,9.33Z"/><path id="Tracé_3" data-name="Tracé 3" class="cls-4" d="M22,19.8c6.52-1.51,11.68-.66,13,2.69.13.76-2.24,4.24-10.42,6.35s-13-.3-13.15-.83C10.8,25,15.52,21.31,22,19.8Z"/><path class="cls-2" d="M28.19,31.3l5.17,3.4a10.61,10.61,0,0,1-8.85,4.4A10.56,10.56,0,0,1,13.67,28.17a10.55,10.55,0,0,1,10.84-10.9,10.53,10.53,0,0,1,8.85,4.39l-5.17,3.4a4.4,4.4,0,0,0-3.68-1.77c-2.89,0-4.6,2.14-4.6,4.88S21.62,33,24.51,33A4.38,4.38,0,0,0,28.19,31.3Z"/><path id="Tracé_1" data-name="Tracé 1" class="cls-5" d="M10.5,18.68s1.05-4.06,9.51-6.11,11.55.77,11.55.77l3.52,9.15s-2-5.24-13.23-2.11c-11.56,3.22-10.46,7.46-10.46,7.46Z"/></g></g></svg>